<svg xmlns="http://www.w3.org/2000/svg" width="21" height="21" viewBox="0 0 21 21">
    <path fill="#588baa" stroke="rgba(0,0,0,0)" d="M14.449 24.444a10 10 0 1 1 7.074-2.929 9.941 9.941 0 0 1-7.074 2.929zM14.2 8.666a5.954 5.954 0 0 0-2.361.483A6.011 6.011 0 0 0 8.6 12.39a6.009 6.009 0 0 0 0 4.72 6.013 6.013 0 0 0 3.242 3.24 5.948 5.948 0 0 0 2.361.483 6.069 6.069 0 0 0 2.592-.575 5.96 5.96 0 0 0 2.086-1.611.162.162 0 0 0 .029-.1.106.106 0 0 0-.032-.079l-1.1-1.111a.157.157 0 0 0-.106-.039.125.125 0 0 0-.091.046 4.251 4.251 0 0 1-5.032 1.323 4.233 4.233 0 0 1-2.279-2.277 4.234 4.234 0 0 1 0-3.315 4.233 4.233 0 0 1 2.279-2.277 4.19 4.19 0 0 1 1.659-.338 4.263 4.263 0 0 1 1.569.3 4.171 4.171 0 0 1 1.337.848l.1.091L16 12.926a.331.331 0 0 0-.084.414.357.357 0 0 0 .358.244H19.9a.4.4 0 0 0 .388-.388V9.571a.358.358 0 0 0-.245-.358.409.409 0 0 0-.163-.038.348.348 0 0 0-.253.124l-1.141 1.132-.092-.086a6.2 6.2 0 0 0-1.939-1.241 6.009 6.009 0 0 0-2.255-.438z" transform="translate(-3.949 -3.944)"/>
</svg>
